<?xml version="1.0" standalone="no"?>
<!DOCTYPE svg PUBLIC "-//W3C//DTD SVG 20010904//EN"
 "http://www.w3.org/TR/2001/REC-SVG-20010904/DTD/svg10.dtd">
<svg version="1.0" xmlns="http://www.w3.org/2000/svg"
 width="512.000000pt" height="512.000000pt" viewBox="0 0 512.000000 512.000000"
 preserveAspectRatio="xMidYMid meet">
<metadata>
Created by potrace 1.14, written by Peter Selinger 2001-2017
</metadata>
<g transform="translate(0.000000,512.000000) scale(0.100000,-0.100000)"
fill="#000000" stroke="none">
<path d="M2603 2891 c-98 -34 -167 -98 -199 -188 -9 -25 -13 -89 -14 -191 l0
-153 68 3 67 3 5 150 c5 135 7 153 28 182 20 29 93 73 120 73 8 0 12 23 12 70
0 80 -1 81 -87 51z"/>
<path d="M3834 2891 c-98 -45 -132 -163 -71 -251 36 -53 69 -72 139 -79 54 -5
63 -9 63 -26 0 -19 -8 -20 -122 -23 l-123 -3 0 -74 0 -75 135 0 c116 0 142 3
175 20 69 35 102 109 86 194 -14 73 -98 135 -183 136 -46 0 -61 13 -43 35 10
11 38 15 116 15 l104 0 0 75 0 75 -117 0 c-93 0 -127 -4 -159 -19z"/>
<path d="M1983 2890 c-49 -11 -119 -57 -149 -95 -37 -49 -53 -100 -53 -170 -1
-179 183 -311 352 -251 20 8 37 10 37 5 0 -5 32 -9 70 -9 l70 0 0 265 0 265
-70 0 c-56 0 -70 -3 -70 -15 0 -18 4 -18 -45 0 -43 15 -92 17 -142 5z m135
-150 c55 -34 77 -112 47 -170 -24 -46 -62 -70 -112 -70 -126 0 -184 127 -100
219 42 45 111 54 165 21z"/>
<path d="M2867 2886 c-164 -59 -233 -240 -149 -389 86 -153 294 -185 420 -64
17 17 32 34 32 39 0 4 -25 24 -55 44 l-55 37 -25 -23 c-34 -32 -109 -38 -151
-12 -33 21 -64 76 -64 114 0 37 34 90 71 110 47 25 89 23 134 -8 l38 -25 53
37 c30 20 54 40 54 44 0 18 -85 80 -128 94 -55 19 -124 20 -175 2z"/>
<path d="M3202 2706 l3 -194 30 -43 c49 -70 104 -102 179 -107 79 -5 127 10
178 56 72 65 78 87 78 297 l0 185 -70 0 -70 0 0 -171 0 -171 -30 -30 c-27 -27
-36 -30 -72 -25 -78 10 -83 23 -86 222 l-3 175 -70 0 -70 0 3 -194z"/>
</g>
</svg>
