<?xml version="1.0" standalone="no"?>
<!DOCTYPE svg PUBLIC "-//W3C//DTD SVG 20010904//EN"
 "http://www.w3.org/TR/2001/REC-SVG-20010904/DTD/svg10.dtd">
<svg version="1.0" xmlns="http://www.w3.org/2000/svg"
 width="200.000000pt" height="200.000000pt" viewBox="0 0 200.000000 200.000000"
 preserveAspectRatio="xMidYMid meet">
<metadata>
Created by potrace 1.14, written by Peter Selinger 2001-2017
</metadata>
<g transform="translate(0.000000,200.000000) scale(0.100000,-0.100000)"
fill="#000000" stroke="none">
<path d="M875 1990 c-137 -28 -261 -96 -365 -201 -82 -83 -149 -197 -171 -294
-6 -27 -13 -61 -16 -75 -6 -25 -7 -141 -3 -230 1 -25 -1 -66 -5 -91 -9 -58 8
-112 47 -151 16 -15 32 -28 36 -28 22 0 76 -68 117 -146 26 -49 52 -95 57
-101 6 -7 7 -13 3 -13 -4 0 -3 -6 3 -12 5 -7 34 -60 64 -118 82 -156 198 -378
227 -433 14 -27 39 -58 56 -70 32 -23 98 -31 129 -14 46 24 47 25 182 282 43
83 95 180 114 216 19 37 66 127 104 200 72 140 108 193 140 204 60 22 103 108
91 184 -4 25 -6 71 -5 101 8 168 1 240 -32 335 -72 211 -231 364 -451 436 -69
22 -252 33 -322 19z"/>
</g>
</svg>
