<?xml version="1.0" encoding="utf-8"?>
<!-- Generator: Adobe Illustrator 24.2.0, SVG Export Plug-In . SVG Version: 6.00 Build 0)  -->
<svg version="1.1" id="图层_1" xmlns="http://www.w3.org/2000/svg" xmlns:xlink="http://www.w3.org/1999/xlink" x="0px" y="0px"
	 viewBox="0 0 847.1 362" style="enable-background:new 0 0 847.1 362;" xml:space="preserve">
<style type="text/css">
	.st0{clip-path:url(#SVGID_2_);}
	.st1{clip-path:url(#SVGID_4_);fill:#FFFFFF;}
</style>
<g>
	<g>
		<defs>
			<path id="SVGID_1_" d="M704.9,24.1c10,0,18,7.7,18,17.1s-8.1,17.1-18,17.1s-18-7.7-18-17.1S695,24.1,704.9,24.1z M602.1,24.1
				c10,0,18,7.7,18,17.1s-8.1,17.1-18,17.1s-18-7.7-18-17.1S592.2,24.1,602.1,24.1z M735.5,112.5h-88.3v171.4h101L735.5,112.5z
				 M672.6,43.9c1.3,17.2,15.3,30.7,32.4,30.7c17,0,31-13.5,32.4-30.7h59.8l17.8,294H576.9V62.1c6,7.6,15.1,12.4,25.3,12.4
				c17,0,31-13.5,32.4-30.7L672.6,43.9L672.6,43.9z M515.1,43.9v54.6H389.5l-1.7,58.4h114.7v54.6H386.6l-2.1,71.8h150.9v54.6H315.3
				l8.4-294C323.7,43.9,515.1,43.9,515.1,43.9z M111.9,43.9l-3.4,114.7h98V43.9h63.6v294h-63.6V215.7h-99.7L102,337.9H32l21-294
				H111.9z"/>
		</defs>
		<clipPath id="SVGID_2_">
			<use xlink:href="#SVGID_1_"  style="overflow:visible;"/>
		</clipPath>
		<g class="st0">
			<g>
				<defs>
					<rect id="SVGID_3_" x="-1687" y="-811.1" width="4221.1" height="1966.2"/>
				</defs>
				<clipPath id="SVGID_4_">
					<use xlink:href="#SVGID_3_"  style="overflow:visible;"/>
				</clipPath>
				<rect x="23.1" y="15" class="st1" width="800.9" height="331.9"/>
			</g>
		</g>
	</g>
</g>
</svg>
